<?xml version="1.0" encoding="UTF-8" standalone="no"?><!DOCTYPE svg PUBLIC "-//W3C//DTD SVG 1.1//EN" "http://www.w3.org/Graphics/SVG/1.1/DTD/svg11.dtd"><svg width="100%" height="100%" viewBox="0 0 900 232" version="1.1" xmlns="http://www.w3.org/2000/svg" xmlns:xlink="http://www.w3.org/1999/xlink" xml:space="preserve" xmlns:serif="http://www.serif.com/" style="fill-rule:evenodd;clip-rule:evenodd;stroke-linejoin:round;stroke-miterlimit:1.41421;"><rect id="Artboard1" x="0" y="0" width="900" height="232" style="fill:none;"/><clipPath id="_clip1"><rect x="0" y="0" width="900" height="232"/></clipPath><g clip-path="url(#_clip1)"><rect x="258.746" y="57.708" width="2.458" height="115.875" style="fill:#3e4143;fill-rule:nonzero;"/><path d="M11.183,115.633l104.45,104.442l104.442,-104.442l-104.442,-104.45l-104.45,104.45Z" style="fill:#fae82c;fill-rule:nonzero;"/><path d="M115.633,220.075l-104.45,-104.442l104.45,-104.45l104.442,104.45l-104.442,104.442Zm110.038,-110.042l-104.45,-104.433l-5.588,-5.6l-5.6,5.6l-104.437,104.433l-5.596,5.6l5.596,5.6l104.437,104.442l5.6,5.592l5.588,-5.592l104.45,-104.442l5.596,-5.6l-5.596,-5.6Z" style="fill:#3e4143;fill-rule:nonzero;"/><path d="M81.179,89.437l19.496,0l36.242,41.888l0,-41.888l13.15,0l0,52.384l-19.492,0l-36.246,-41.871l0,41.871l-13.15,0l0,-52.384Z" style="fill:#3e4143;fill-rule:nonzero;"/><path d="M161.733,130.112l12.304,0l0,6.43c0,8.558 -2.47,14.62 -7.391,18.146c-4.896,3.541 -13.229,5.32 -25.004,5.32l-49.475,0c-12.559,0 -21.525,-2.454 -26.9,-7.362c-5.363,-4.942 -8.046,-13.004 -8.046,-24.171l0,-25.692c0,-11.166 2.717,-19.196 8.117,-24.104c5.416,-4.958 14.35,-7.404 26.829,-7.404l49.533,0c20.167,0 30.229,7.121 30.229,21.362l0,7.592l-11.504,0l0,-3.858c0,-5.796 -1.571,-9.829 -4.712,-12.084c-3.146,-2.287 -8.613,-3.445 -16.434,-3.445l-46.054,0c-8.254,0 -14.125,1.5 -17.612,4.487c-3.488,2.971 -5.234,7.721 -5.234,14.25l0,32.004c0,6.217 1.679,10.921 5.034,14.121c3.366,3.15 9.299,4.729 17.812,4.729l45.992,0c8.55,0 14.441,-1.066 17.671,-3.216c3.225,-2.146 4.845,-5.934 4.845,-11.375l0,-5.73Z" style="fill:#3e4143;fill-rule:nonzero;"/><path d="M342.006,132.43l-42.546,-38.947l-9.298,0l0,44.301l6.259,0l0,-38.942l42.562,38.942l9.282,0l0,-44.301l-6.259,0l0,38.947Z" style="fill:#3e4143;fill-rule:nonzero;"/><path d="M382.966,123.428l15.447,-25.079l15.475,25.079l-30.922,0Zm11.547,-29.945l-27.411,44.301l7.038,0l5.891,-9.457l36.775,0l5.88,9.457l7.06,0l-27.427,-44.301l-7.806,0Z" style="fill:#3e4143;fill-rule:nonzero;"/><path d="M495.221,108.881c0,2.529 -0.883,4.251 -2.617,5.162c-1.733,0.877 -4.24,1.327 -7.575,1.327l-29.913,0l0,-16.978l28.98,0c4.109,0 6.994,0.417 8.618,1.317c1.673,0.845 2.507,2.584 2.507,5.25l0,3.922Zm-8.942,-15.398l-37.411,0l0,44.301l6.248,0l0,-17.526l30.401,0c3.697,0 6.199,0.554 7.521,1.629c1.327,1.08 2.002,3.116 2.002,6.094l0,9.803l5.842,0l0,-11.152c0,-4.888 -2.688,-7.757 -8.091,-8.58c3.077,-0.356 5.321,-1.157 6.654,-2.38c1.355,-1.224 2.035,-3.303 2.035,-6.248l0,-3.61c0,-4.723 -1.108,-7.937 -3.308,-9.693c-2.205,-1.738 -6.171,-2.638 -11.893,-2.638Z" style="fill:#3e4143;fill-rule:nonzero;"/><path d="M572.945,115.628c-2.469,-1.865 -6.868,-2.809 -13.198,-2.809l-19.436,0c-4.52,0 -7.52,-0.461 -8.985,-1.442c-1.415,-1.01 -2.134,-2.853 -2.134,-5.541c0,-3.269 0.971,-5.386 2.919,-6.396c1.969,-1.042 6.039,-1.541 12.221,-1.541l8.821,0c4.75,0 8.409,0.17 10.987,0.554c2.551,0.378 4.131,1.245 4.723,2.583c0.62,1.35 0.949,3.105 0.949,5.305l5.842,0l0,-1.887c0,-4.114 -1.431,-7.049 -4.295,-8.799c-2.836,-1.777 -7.718,-2.644 -14.608,-2.644l-14.201,0c-7.554,0 -12.661,0.977 -15.294,2.902c-2.611,1.953 -3.922,5.08 -3.922,9.473c0,5.14 1.432,8.558 4.29,10.242c2.89,1.684 8.442,2.529 16.643,2.529l16.544,0c3.938,0 6.582,0.504 7.937,1.508c1.355,1.031 2.041,2.886 2.041,5.584c0,3.067 -0.834,5.173 -2.513,6.353c-1.656,1.179 -4.761,1.766 -9.314,1.766l-19.369,0c-3.906,0 -6.621,-0.499 -8.13,-1.509c-1.525,-1.047 -2.271,-2.753 -2.271,-5.172l0,-2.71l-5.858,0l0,3.083c0,4.009 1.311,6.878 3.955,8.601c2.649,1.739 7.005,2.594 13.05,2.594l17.57,0c7.224,0 12.134,-0.954 14.783,-2.868c2.65,-1.92 3.955,-4.811 3.955,-8.7l0,-2.71c0,-3.719 -1.228,-6.495 -3.702,-8.349Z" style="fill:#3e4143;fill-rule:nonzero;"/><path d="M667.141,125.946c0,2.776 -0.757,4.69 -2.293,5.798c-1.541,1.081 -4.333,1.624 -8.398,1.624l-21.909,0c-4.043,0 -6.857,-0.812 -8.459,-2.408c-1.612,-1.629 -2.402,-4.027 -2.402,-7.192l0,-16.314c0,-3.346 0.817,-5.754 2.474,-7.273c1.678,-1.536 4.459,-2.282 8.387,-2.282l21.931,0c3.725,0 6.314,0.576 7.817,1.766c1.508,1.125 2.238,3.182 2.238,6.138l0,1.97l5.48,0l0,-3.868c0,-7.273 -4.789,-10.894 -14.383,-10.894l-23.582,0c-5.941,0 -10.198,1.256 -12.765,3.774c-2.583,2.507 -3.878,6.599 -3.878,12.288l0,13.11c0,5.683 1.278,9.797 3.845,12.331c2.562,2.502 6.813,3.741 12.798,3.741l23.555,0c5.606,0 9.572,-0.899 11.892,-2.698c2.359,-1.822 3.527,-4.888 3.527,-9.271l0,-3.286l-5.875,0l0,2.946Z" style="fill:#3e4143;fill-rule:nonzero;"/><path d="M706.291,123.428l15.458,-25.079l15.486,25.079l-30.944,0Zm11.569,-29.945l-27.405,44.301l7.032,0l5.886,-9.457l36.78,0l5.891,9.457l7.044,0l-27.428,-44.301l-7.8,0Z" style="fill:#3e4143;fill-rule:nonzero;"/><path d="M818.552,108.881c0,2.529 -0.873,4.251 -2.611,5.162c-1.728,0.877 -4.246,1.327 -7.57,1.327l-29.907,0l0,-16.978l28.974,0c4.114,0 6.978,0.417 8.629,1.317c1.656,0.845 2.485,2.584 2.485,5.25l0,3.922Zm-8.936,-15.398l-37.422,0l0,44.301l6.27,0l0,-17.526l30.411,0c3.67,0 6.16,0.554 7.504,1.629c1.333,1.08 1.997,3.116 1.997,6.094l0,9.803l5.842,0l0,-11.152c0,-4.888 -2.693,-7.757 -8.08,-8.58c3.088,-0.356 5.304,-1.157 6.643,-2.38c1.349,-1.224 2.035,-3.303 2.035,-6.248l0,-3.61c0,-4.723 -1.097,-7.937 -3.302,-9.693c-2.205,-1.738 -6.166,-2.638 -11.898,-2.638Z" style="fill:#3e4143;fill-rule:nonzero;"/><path d="M896.292,115.628c-2.474,-1.865 -6.874,-2.809 -13.198,-2.809l-19.435,0c-4.526,0 -7.521,-0.461 -8.986,-1.442c-1.431,-1.01 -2.133,-2.853 -2.133,-5.541c0,-3.269 0.96,-5.386 2.918,-6.396c1.964,-1.042 6.039,-1.541 12.211,-1.541l8.809,0c4.756,0 8.431,0.17 11.01,0.554c2.55,0.378 4.125,1.245 4.723,2.583c0.614,1.35 0.943,3.105 0.943,5.305l5.848,0l0,-1.887c0,-4.114 -1.432,-7.049 -4.295,-8.799c-2.847,-1.777 -7.713,-2.644 -14.614,-2.644l-14.191,0c-7.57,0 -12.66,0.977 -15.288,2.902c-2.627,1.953 -3.938,5.08 -3.938,9.473c0,5.14 1.431,8.558 4.3,10.242c2.869,1.684 8.42,2.529 16.632,2.529l16.539,0c3.955,0 6.594,0.504 7.959,1.508c1.355,1.031 2.03,2.886 2.03,5.584c0,3.067 -0.828,5.173 -2.523,6.353c-1.657,1.179 -4.751,1.766 -9.309,1.766l-19.375,0c-3.9,0 -6.61,-0.499 -8.124,-1.509c-1.525,-1.047 -2.265,-2.753 -2.265,-5.172l0,-2.71l-5.864,0l0,3.083c0,4.009 1.322,6.878 3.96,8.601c2.644,1.739 7,2.594 13.045,2.594l17.559,0c7.219,0 12.166,-0.954 14.799,-2.868c2.639,-1.92 3.961,-4.811 3.961,-8.7l0,-2.71c0,-3.719 -1.24,-6.495 -3.708,-8.349Z" style="fill:#3e4143;fill-rule:nonzero;"/></g></svg>