<?xml version="1.0" standalone="no"?>
<!DOCTYPE svg PUBLIC "-//W3C//DTD SVG 20010904//EN"
 "http://www.w3.org/TR/2001/REC-SVG-20010904/DTD/svg10.dtd">
<svg version="1.0" xmlns="http://www.w3.org/2000/svg"
 width="300.000000pt" height="68.000000pt" viewBox="0 0 300.000000 68.000000"
 preserveAspectRatio="xMidYMid meet">

<g transform="translate(0.000000,68.000000) scale(0.100000,-0.100000)"
fill="#000000" stroke="none">
<path style="fill:#ff6600;" d="M2928 643 l-28 -4 0 -215 0 -214 35 0 35 0 0 220 c0 121 -3 219 -7
219 -5 -1 -20 -4 -35 -6z"/>
<path style="fill:#ff6600;" d="M30 405 l0 -195 115 0 c130 0 159 17 38 22 l-78 3 -3 76 -3 76 62 6
c92 8 100 27 11 27 l-72 0 0 75 0 75 75 0 c60 0 75 3 75 15 0 12 -19 15 -110
15 l-110 0 0 -195z"/>
<path style="fill:#ff6600;" d="M1340 406 l0 -196 30 0 30 0 0 80 c0 77 1 80 23 80 18 0 28 -10 42
-40 40 -89 84 -129 142 -130 43 0 49 15 14 36 -15 9 -47 44 -69 78 l-41 61 28
25 c50 43 63 92 40 143 -18 39 -48 51 -146 55 l-93 4 0 -196z m152 147 c13
-12 18 -30 18 -68 0 -62 -14 -77 -68 -79 l-37 -1 -3 83 -3 82 37 0 c21 0 46
-7 56 -17z"/>
<path style="fill:#ff6600;" d="M2376 479 c-31 -23 -35 -30 -22 -35 13 -5 16 -24 16 -114 0 -127 6
-136 76 -126 24 3 55 11 67 18 21 12 19 13 -23 18 l-45 5 -3 98 -3 97 34 0
c19 0 40 7 47 15 11 13 6 15 -34 15 -39 0 -46 3 -46 20 0 27 -18 24 -64 -11z"/>
<path style="fill:#ff6600;" d="M395 455 c-22 -8 -42 -16 -45 -17 -3 -1 22 -4 55 -7 l60 -6 3 -36 3
-37 -61 -4 c-70 -5 -89 -22 -90 -80 0 -61 56 -86 120 -53 26 13 32 13 59 -2
27 -16 32 -16 63 -1 20 10 26 17 16 17 -28 1 -38 34 -38 125 0 64 -4 88 -16
100 -19 20 -76 20 -129 1z m77 -150 c0 -19 1 -40 2 -47 1 -6 -12 -16 -28 -21
-24 -8 -32 -6 -43 9 -16 22 -17 66 -1 82 7 7 25 12 40 12 25 0 28 -4 30 -35z"/>
<path style="fill:#ff6600;" d="M671 444 c-21 -18 -31 -35 -31 -54 0 -30 33 -70 57 -70 8 0 27 -7 43
-15 23 -12 30 -22 30 -45 0 -28 -3 -30 -35 -30 -20 0 -49 7 -65 15 -25 13 -29
13 -34 -2 -10 -25 8 -36 67 -41 49 -4 57 -2 90 28 65 57 47 101 -57 140 -29
11 -42 22 -44 38 -4 29 16 36 73 24 43 -9 45 -9 45 14 0 22 -4 24 -54 24 -44
0 -60 -5 -85 -26z"/>
<path style="fill:#ff6600;" d="M866 461 c-4 -5 0 -13 7 -18 18 -10 47 -66 87 -168 l31 -77 -21 -33
c-27 -44 -87 -97 -128 -114 -28 -12 -31 -16 -18 -23 28 -15 82 10 119 55 61
75 164 241 181 292 19 56 14 100 -10 91 -9 -3 -19 -6 -22 -6 -4 0 -7 -21 -7
-48 0 -52 -31 -145 -47 -140 -6 2 -20 31 -32 64 -37 103 -57 129 -98 132 -20
2 -39 -1 -42 -7z"/>
<path style="fill:#ff6600;" d="M1753 455 c-73 -32 -94 -175 -33 -230 32 -29 106 -30 165 -1 l50 24
-71 -5 c-66 -5 -72 -4 -88 18 -39 56 -16 78 79 79 28 0 56 4 64 9 20 13 6 58
-29 92 -32 33 -82 38 -137 14z m84 -27 c6 -7 13 -25 17 -40 6 -28 6 -28 -44
-28 -44 0 -50 3 -50 21 0 49 51 80 77 47z"/>
<path style="fill:#ff6600;" d="M2020 340 l0 -130 30 0 30 0 0 96 c0 108 8 123 67 124 44 0 53 -21
53 -129 l0 -91 35 0 35 0 0 105 c0 99 -2 107 -25 130 -29 30 -56 31 -113 5
-44 -20 -44 -20 -49 0 -4 14 -14 20 -34 20 l-29 0 0 -130z"/>
<path style="fill:#ff6600;" d="M2640 452 l-45 -17 65 -5 65 -5 0 -35 0 -35 -58 -6 c-72 -8 -92 -25
-92 -80 0 -66 47 -87 119 -53 32 16 36 16 51 0 19 -19 34 -20 72 -5 28 11 28
11 6 22 -21 9 -23 16 -23 104 0 80 -3 96 -20 113 -25 25 -77 25 -140 2z m88
-163 c3 -44 1 -47 -25 -52 -38 -7 -53 8 -53 53 0 41 10 50 50 47 22 -2 25 -7
28 -48z"/>
</g>
</svg>
